<svg id="Capa_1" data-name="Capa 1" xmlns="http://www.w3.org/2000/svg" viewBox="0 0 646.93 646.93"><defs><style>.cls-1{fill:none;stroke:#020202;stroke-width:9px;}.cls-1,.cls-2{stroke-miterlimit:10;}.cls-2,.cls-6{fill:#060707;}.cls-2{stroke:#fff;stroke-width:30px;}.cls-3{fill:#fff;}.cls-4{fill:#fafafa;}.cls-5{fill:#fffffb;}</style></defs><title>Cuervo</title><rect class="cls-1" x="105.21" y="109.44" width="448.77" height="448.77" transform="translate(-145.43 337.97) rotate(-47.14)"/><circle class="cls-2" cx="323.46" cy="323.46" r="267.63"/><path class="cls-3" d="M185.16,398.22l21.67-37.53c-3.54-7.19-29.38-62-2-120.49,21.83-46.65,68.61-76.52,118.51-78.61,59.38-2.49,116,34.64,135.54,90.57C480,312.5,447.77,365.37,443.27,372.5c7.86,11.72,17.5,14.19,25.36,25.91,9-11.61,48.55-58.49,36.46-130.32-13.69-81.35-90.67-151.35-182.59-147.75-87.33,3.42-156.64,72-168.78,149.66C143.74,333.87,175.55,384.15,185.16,398.22Z" transform="translate(-6.12 -10.36)"/><polygon class="cls-4" points="217.21 195 324.48 384.9 328.09 537.09 159.09 238.32 217.21 195"/><polygon class="cls-5" points="426.19 187.88 328.09 384.9 331.69 537.09 486.26 227.11 426.19 187.88"/><rect class="cls-4" x="178.01" y="346.55" width="285.5" height="39"/><polygon class="cls-6" points="300.55 385.55 357.3 385.55 328.92 481.29 300.55 385.55"/></svg>