<?xml version="1.0" encoding="utf-8"?>
<!-- Generator: Adobe Illustrator 23.1.1, SVG Export Plug-In . SVG Version: 6.00 Build 0)  -->
<svg version="1.1" id="Capa_1" xmlns="http://www.w3.org/2000/svg" xmlns:xlink="http://www.w3.org/1999/xlink" x="0px" y="0px"
	 viewBox="0 0 1023 374" style="enable-background:new 0 0 1023 374;" xml:space="preserve">
<style type="text/css">
	.st0{fill:#FFFFFF;}
</style>
<path class="st0" d="M161.8,178.1c0,17.8-6.3,32.5-18.9,44.2c-12.6,11.6-28.7,17.5-48.3,17.5c-11.9,0-28.4-4-49.3-12
	c-1.6-0.6-2.9-0.9-4.1-0.9c-3.3,0-5.9,3.5-7.6,10.6c-0.6,2.2-1.4,3.2-2.3,3.2c-1.6,0-2.3-1.4-2.3-4.1c0-2.5,0.5-7,1.5-13.5
	c0.8-5.3,1.2-11.5,1.2-18.5c0-5.7-0.1-10.2-0.3-13.5c-0.4-6.7-0.6-10.6-0.6-11.7c0-3.1,1-4.7,2.9-4.7c2,0,3.7,4.2,5.3,12.6
	c2.7,14.5,8.9,25.7,18.5,33.8c10.4,8.6,21.5,12.9,33.5,12.9c10.6,0,19.5-3.3,26.7-10c7.2-6.7,10.9-14.8,10.9-24.4
	c0-8.2-2.3-14.8-7-19.7c-3.5-3.5-14.9-10.5-34.1-20.8c-21.3-11.3-35.8-22.7-43.5-34.1c-7-10.4-10.6-22.7-10.6-37
	c0-16.8,6-30.8,17.9-41.8c11.9-11.1,27-16.6,45.2-16.6c9.8,0,20.3,2.3,31.4,7c3.7,1.6,6.4,2.3,7.9,2.3c2.9,0,4.9-2.5,5.9-7.6
	c0.4-1.8,1.3-2.6,2.6-2.6c2,0,2.9,1.3,2.9,3.8c0,1-0.2,3.7-0.6,8.2c-0.4,4.5-0.6,8.2-0.6,11.2c0,10.2,0.4,18.8,1.2,25.8
	c0.2,0.6,0.3,1.4,0.3,2.3c0,1.8-0.8,2.6-2.3,2.6c-1.8,0-3.5-3.1-5.3-9.4c-1.8-6.3-4.8-12.5-9.2-18.6s-8.9-10.6-13.4-13.4
	c-5.9-3.5-12.7-5.3-20.6-5.3c-11,0-19.7,2.6-26.1,7.9c-6.5,5.3-9.7,12.5-9.7,21.7c0,8,3,15.1,9.1,21.3c6.1,6.2,17.7,14,34.9,23.6
	c21.1,11.7,35.1,21.1,42,28.2C156.8,149.1,161.8,162.2,161.8,178.1z"/>
<path class="st0" d="M414,234.1c0,1.6-2.4,2.3-7.3,2.3c-0.4,0-2.9,0-7.6,0c-4.7,0-11.6,0-20.6,0h-9.4h-25.2c-2.7,0-4.1-0.7-4.1-2.2
	c0-1.3,1.2-1.9,3.5-1.9h2.3c5,0,7.9-0.6,8.8-1.9c0.9-1.3,1.3-5.7,1.3-13.1v-57c0-21-1.3-33.6-4-37.8c-2.3-3.5-6.5-5.3-12.4-5.3
	s-10.9,1.9-14.7,5.6c-3.9,3.7-5.8,8.4-5.8,14.1v88.7c0.4,2.3,1.2,3.9,2.5,4.5c1.3,0.7,4.4,1.1,9.5,1.3c1.6,0,2.3,0.6,2.3,1.8
	c0,1.2-0.7,1.9-2.1,2c-1.4,0.2-6.3,0.3-14.7,0.3c-8.4,0-15.4,0.1-20.8,0.3c-10.8,0.4-21.7,0.6-32.9,0.6c-2.3,0-3.5-0.7-3.5-2.1
	c0-1.6,3-2.3,9-2.3c6,0,9.4-1.2,10.4-3.5l0.9-4.1v-67.4c0-18.9-0.2-28.8-0.6-29.6c-0.6-2.9-3.2-4.4-7.9-4.4c-2.5,0-4.8,0-6.8,0h-3.2
	c-3.1,0-4.7-0.6-4.7-1.9c0-1.3,1.2-2,3.5-2.2c21.8-1,39.2-5.6,52.3-13.8c1.6-0.8,2.6-1.2,3.2-1.2c1.6,0,2.3,1.6,2.3,4.7
	c0,8.6,0,14.2,0,16.7c10.4-13.5,23.7-20.3,39.9-20.3c16.8,0,27.8,5.9,32.9,17.6c2.2,4.9,3.5,10.4,4,16.4c0.5,6.1,0.7,18.6,0.7,37.6
	v42.6c0,6.1,0.5,9.6,1.5,10.7c1,1.1,4.2,1.6,9.5,1.6C411.3,231.8,414,232.6,414,234.1z"/>
<path class="st0" d="M549.9,220.4c0,1.6-1.6,3.8-4.7,6.6c-8.4,7.8-18.8,11.6-31.1,11.6c-8,0-13.8-1.7-17.5-5.1
	c-3.6-3.4-6-9.4-7.2-18.1c-8.8,16.1-20.8,24.1-36.1,24.1c-8.4,0-15.2-2.6-20.4-7.9c-5.2-5.3-7.8-12.1-7.8-20.6
	c0-24.7,21.1-39.2,63.4-43.7V161c0-19.6-0.7-31.6-2.1-36.1l-0.3-1.5c-2.7-9.8-9.7-14.7-20.8-14.7c-6.5,0-11.6,1.9-15.6,5.6
	c-3.9,3.7-5.9,7.3-5.9,10.9c0,2,2.3,3.1,7,3.5c7,0.6,10.6,4.9,10.6,12.9c0,4.3-1.4,7.9-4.3,10.7c-2.8,2.8-6.5,4.3-11,4.3
	c-5.7,0-10.3-1.7-13.9-5.1c-3.6-3.4-5.4-7.8-5.4-13.1c0-8.4,4.2-16,12.6-22.9c8.4-6.8,19.5-10.3,33.2-10.3
	c20.4,0,34.5,3.6,42.6,10.9c6.5,6.1,9.7,16.6,9.7,31.7V198c0,9.8,0.1,15.5,0.3,17c1,8.2,3.8,12.3,8.5,12.3c3.3,0,7.4-2.3,12.3-7
	c1-1,1.8-1.5,2.3-1.5C549.5,218.9,549.9,219.4,549.9,220.4z M488.6,185.4V171c-19,3.7-28.5,14.5-28.5,32.3
	c0,13.7,4.7,20.6,14.1,20.6c5.3,0,9-2.9,11.2-8.8C487.5,209.2,488.6,199.3,488.6,185.4z"/>
<path class="st0" d="M694.4,170c0,19.9-5.7,36.5-17,49.8c-11.3,13.3-25.5,19.9-42.4,19.9c-12.9,0-23.2-5.1-31-15.3v65.8
	c0,5.5,0.3,8.9,0.9,10.4c0.6,1.5,1.9,2.4,3.9,2.8c2,0.4,7.2,0.7,15.5,0.9c2.1,0,3.2,0.9,3.2,2.8c0,1.5-1.3,2.2-3.8,2.2
	c-0.2,0-1.2,0-2.9,0s-3.4,0-5,0h-29.7c-2.2,0-5.1,0-8.8,0c-3.7,0-8,0-12.9,0h-14.7c-4.3,0-6.5-0.8-6.5-2.3c0-1.4,3.5-2.1,10.6-2.1
	c5.9,0,9.1-0.6,9.8-1.8c0.7-1.2,1-4.9,1-11.2V144c0-1.4,0-2.7,0-4.1c0-1.2,0-2,0-2.3v-8.2c0.2-4.1-1.4-6.7-4.7-7.6
	c-1.6-0.6-4.9-0.9-10-0.9h-5.6c-1.6,0-2.3-0.6-2.3-1.8c0-1.6,1.2-2.2,3.5-1.8c20.7-0.6,38.9-4.5,54.6-11.7c0.8,1.2,1.3,2.7,1.5,4.7
	l0.6,7.3l0.3,5c5.3-6.5,10.5-11,15.6-13.4c5.1-2.4,11.6-3.6,19.7-3.6c16.2,0,29.8,6.1,40.5,18.3C689,136.1,694.4,151.4,694.4,170z
	 M651.2,168.8c0-37.3-8.4-55.9-25.1-55.9c-7.4,0-13.6,3.5-18.7,10.5c-2.3,3.3-3.5,8.9-3.5,16.7v57.7c0,12.5,1.6,21,4.7,25.5
	c4.5,6.6,10.5,10,18.1,10C643.1,233.3,651.2,211.8,651.2,168.8z"/>
<path class="st0" d="M801.3,195.4c0,13.1-4,23.7-12,31.9c-8,8.1-18.3,12.2-31,12.2c-6.2,0-13.7-1.6-22.2-4.7
	c-7-2.5-11.6-3.8-13.8-3.8c-3.7,0-6.1,1.4-7.3,4.3c-1.2,2.8-2.1,4.3-2.6,4.3c-1.2,0-1.8-0.7-1.8-2.1c0-1.2,0.2-3.1,0.5-5.6
	c0.5-3.7,0.7-10.2,0.7-19.5c0-0.4,0-1.4,0-3c0-1.6,0-3.7,0-6.5v-5c0-2.2,0.5-3.3,1.5-3.3c1.2,0,2,1.5,2.6,4.4
	c1.8,10.4,6.7,19,14.9,26c8.2,7,17.3,10.4,27.5,10.4c6.4,0,11.6-2,15.6-6c4-4,6-9.2,6-15.7c0-5.1-1.9-9.4-5.6-12.9
	c-2.7-2.5-10.1-5.8-22-9.7c-14.7-4.9-25.3-10.8-31.9-17.8c-6.6-6.9-9.8-15.8-9.8-26.6c0-11.5,3.9-21.3,11.7-29.4
	c7.8-8,17.4-12,28.8-12c4.3,0,11.7,1.4,22.3,4.1c1.6,0.4,2.7,0.6,3.5,0.6c4.3,0,7.5-2.6,9.7-7.9c0.4-1,0.9-1.5,1.5-1.5
	c1.4,0,2.1,1.2,2.1,3.5l-0.3,5.6c-0.2,0.8-0.3,2.2-0.3,4.1c0,8,0.5,16.2,1.5,24.7v1.5c0,1.6-0.6,2.3-1.8,2.3c-1,0-1.8-0.9-2.3-2.6
	c-5.7-20-17.2-29.9-34.6-29.9c-6.5,0-11.8,1.8-16,5.3c-4.2,3.5-6.3,8-6.3,13.5c0,5.1,1.8,9.1,5.3,12c3.5,2.9,10.4,6.3,20.6,10
	c17.8,6.3,29.8,12.5,36.1,18.8C798.1,175.5,801.3,184.2,801.3,195.4z"/>
<path class="st0" d="M890.2,234.1c0,1.4-0.9,2.1-2.6,2.1h-38.9h-28.1c-1.2,0-2.6,0-4.4,0c-1.6,0-2.4,0-2.6,0c-2.3,0-3.5-0.6-3.5-1.9
	c0-0.9,2.2-1.5,6.8-1.6c6.7-0.2,10.6-0.9,11.7-2.2c1.2-1.3,1.8-5.2,1.8-11.7v-84.7c0-7.5-0.6-12-1.9-13.4c-1.3-1.5-5.1-2.2-11.6-2.2
	c-4.1,0-6.5-0.1-7.2-0.3c-0.7-0.2-1-0.9-1-2.1c0-1.4,1.5-2.1,4.4-2.1c21.5-0.2,39.9-3.5,55.2-10c0.4,2.3,0.9,8.8,1.5,19.4v37.3v55.2
	c0,8,0.7,12.7,2.2,14.1c1.5,1.4,6.5,2.1,15.1,2.1C889.1,232.1,890.2,232.8,890.2,234.1z M869.7,48c0,5.5-1.9,10.2-5.7,14.1
	c-3.8,3.9-8.4,5.9-13.8,5.9c-5.6,0-10.3-1.9-14.1-5.6c-3.8-3.7-5.7-8.4-5.7-14.1c0-5.5,1.9-10,5.7-13.5c3.8-3.5,8.7-5.3,14.7-5.3
	c5.4,0,9.9,1.8,13.5,5.3C867.9,38.3,869.7,42.7,869.7,48z"/>
<path class="st0" d="M990.6,195.4c0,13.1-4,23.7-12,31.9c-8,8.1-18.3,12.2-31,12.2c-6.2,0-13.7-1.6-22.2-4.7
	c-7-2.5-11.6-3.8-13.8-3.8c-3.7,0-6.1,1.4-7.3,4.3c-1.2,2.8-2.1,4.3-2.6,4.3c-1.2,0-1.8-0.7-1.8-2.1c0-1.2,0.2-3.1,0.5-5.6
	c0.5-3.7,0.7-10.2,0.7-19.5c0-0.4,0-1.4,0-3c0-1.6,0-3.7,0-6.5v-5c0-2.2,0.5-3.3,1.5-3.3c1.2,0,2,1.5,2.6,4.4
	c1.8,10.4,6.7,19,14.9,26c8.2,7,17.3,10.4,27.5,10.4c6.4,0,11.6-2,15.6-6c4-4,6-9.2,6-15.7c0-5.1-1.9-9.4-5.6-12.9
	c-2.7-2.5-10.1-5.8-22-9.7c-14.7-4.9-25.3-10.8-31.9-17.8c-6.6-6.9-9.8-15.8-9.8-26.6c0-11.5,3.9-21.3,11.7-29.4
	c7.8-8,17.4-12,28.8-12c4.3,0,11.7,1.4,22.3,4.1c1.6,0.4,2.7,0.6,3.5,0.6c4.3,0,7.5-2.6,9.7-7.9c0.4-1,0.9-1.5,1.5-1.5
	c1.4,0,2.1,1.2,2.1,3.5l-0.3,5.6c-0.2,0.8-0.3,2.2-0.3,4.1c0,8,0.5,16.2,1.5,24.7v1.5c0,1.6-0.6,2.3-1.8,2.3c-1,0-1.8-0.9-2.3-2.6
	c-5.7-20-17.2-29.9-34.6-29.9c-6.5,0-11.8,1.8-16,5.3c-4.2,3.5-6.3,8-6.3,13.5c0,5.1,1.8,9.1,5.3,12c3.5,2.9,10.4,6.3,20.6,10
	c17.8,6.3,29.8,12.5,36.1,18.8C987.5,175.5,990.6,184.2,990.6,195.4z"/>
<circle class="st0" cx="99" cy="66" r="23"/>
<path class="st0" d="M121.5,89.5c7.5,8.3,17.1,12.7,26.5,15.9c1.2,0.3,2.4,0.7,3.6,1.1c0.6,0.2,1.2,0.4,1.8,0.5l1.9,0.4
	c1.2,0.3,2.4,0.6,3.7,0.9c0.6,0.2,1.2,0.3,1.8,0.4l1.9,0.3c1.2,0.2,2.5,0.4,3.7,0.6c1.2,0.2,2.5,0.3,3.7,0.5
	c2.5,0.3,4.9,0.7,7.5,0.8l3.8,0.2l1.9,0.1c0.6,0.1,1.3,0.1,1.9,0.1c2.5,0,5.1,0.1,7.6,0.1l2.1,0.1c0.9,0,1.8,0.1,2.8,0.2
	c0.9,0.1,1.8,0.2,2.7,0.3l2.7,0.5c3.6,0.8,7.1,2,10.3,3.6c6.5,3.1,12.1,7.5,16.7,12.4c2.3,2.5,4.4,5.1,6.3,7.9
	c1.9,2.8,3.5,5.6,5,8.5c5.8,11.8,8.4,24.9,7.3,38.1c-0.6,6.6-2.1,13.1-4.7,19.3c-1.3,3.1-2.9,6-4.7,8.8c-0.9,1.4-1.9,2.7-2.9,4.1
	c-1,1.3-2.1,2.6-3.2,3.8c-1.1,1.2-2.3,2.3-3.5,3.5c-1.2,1.1-2.4,2.1-3.7,3.1c-2.6,2-5.3,3.7-8,5.1c-5.5,2.9-11.4,4.9-17.2,6.2
	c-5.8,1.2-11.6,1.7-17.3,1.6c-5.7-0.1-11.3-0.8-16.8-2c5.4-1.7,10.5-3.4,15.5-5.4c5-2,9.7-4.1,14.1-6.6c1.1-0.6,2.2-1.3,3.2-1.9
	c1-0.7,2.1-1.3,3-2.1c2-1.4,3.8-2.9,5.6-4.4c1.7-1.6,3.3-3.2,4.7-4.9c0.8-0.8,1.4-1.7,2.1-2.6c0.6-0.9,1.3-1.8,1.8-2.7
	c4.5-7.3,6.6-15.5,6.6-24.1c0-8.5-2.2-17.2-5.9-24.9c-1.9-3.8-4.2-7.4-6.8-10.5c-2.6-3.1-5.6-5.7-8.7-7.6c-1.6-0.9-3.2-1.7-4.8-2.3
	l-1.2-0.4c-0.4-0.1-0.8-0.2-1.3-0.3l-1.3-0.3c-0.2,0-0.6-0.1-0.9-0.2l-1.1-0.2c-2.9-0.5-5.7-0.9-8.6-1.4c-2.8-0.6-5.7-1.3-8.5-2
	c-2.8-0.6-5.6-1.7-8.4-2.6c-1.4-0.5-2.8-0.9-4.1-1.5c-1.4-0.6-2.7-1.2-4.1-1.8l-2-0.9c-0.7-0.3-1.3-0.6-2-1
	c-1.3-0.7-2.6-1.4-3.9-2.1l-1.9-1.1c-0.6-0.4-1.3-0.8-1.9-1.2c-1.2-0.8-2.5-1.6-3.7-2.5c-4.7-3.6-9.2-7.5-12.8-12.2
	c-0.9-1.2-1.7-2.4-2.5-3.6c-0.8-1.3-1.5-2.5-2.2-3.8C123.1,95,121.9,92.3,121.5,89.5z"/>
<path class="st0" d="M28.5,307c80.2-1.9,160.3-2.8,240.5-3.5c40.1-0.4,80.2-0.5,120.2-0.8l120.2-0.2l120.2,0.2l60.1,0.3l30.1,0.2
	l30.1,0.3c80.2,0.7,160.3,1.6,240.5,3.5c-80.2,1.9-160.3,2.9-240.5,3.5l-30.1,0.3l-30.1,0.2l-60.1,0.3l-120.2,0.2l-120.2-0.2
	c-40.1-0.2-80.2-0.3-120.2-0.8C188.8,309.8,108.7,308.9,28.5,307z"/>
</svg>
